<?xml version="1.0" encoding="utf-8"?>
<!-- Generator: Adobe Illustrator 20.0.0, SVG Export Plug-In . SVG Version: 6.00 Build 0)  -->
<svg version="1.1" id="Layer_1" xmlns="http://www.w3.org/2000/svg" xmlns:xlink="http://www.w3.org/1999/xlink" x="0px" y="0px"
	 viewBox="0 0 51.9 16" style="enable-background:new 0 0 51.9 16;" xml:space="preserve">
<style type="text/css">
	.st0{fill:#96bf6b;}
	.st1{clip-path:url(#SVGID_2_);}
	.st2{clip-path:url(#SVGID_4_);fill:#96bf6b;}
</style>
<title>Asset 54</title>
<g id="Layer_2">
	<g id="Layer_1-2">
		<polygon class="st0" points="6,0 6,6 0,6 0,10 6,10 6,16 10,16 10,10 16,10 16,6 10,6 10,0 		"/>
		<rect x="18" y="6" class="st0" width="16" height="4"/>
	</g>
</g>
<g>
	<defs>
		<polygon id="SVGID_1_" points="51.9,14.1 45.7,7.9 51.9,1.8 50.1,0 43.9,6.2 37.8,0 36,1.8 42.2,7.9 36,14.1 37.8,15.9 43.9,9.7 
			50.1,15.9 		"/>
	</defs>
	<clipPath id="SVGID_2_">
		<use xlink:href="#SVGID_1_"  style="overflow:visible;"/>
	</clipPath>
	<g class="st1">
		<defs>
			<rect id="SVGID_3_" x="-287" y="-15" width="352" height="624.8"/>
		</defs>
		<clipPath id="SVGID_4_">
			<use xlink:href="#SVGID_3_"  style="overflow:visible;"/>
		</clipPath>
		<rect x="28.5" y="-7.5" transform="matrix(0.7071 -0.7071 0.7071 0.7071 7.2537 33.3998)" class="st2" width="31" height="31"/>
	</g>
</g>
</svg>
