<svg fill="#EC5D57" xmlns="http://www.w3.org/2000/svg" xmlns:xlink="http://www.w3.org/1999/xlink" version="1.1" x="0px" y="0px" viewBox="0 0 100 100" enable-background="new 0 0 100 100" xml:space="preserve"><path d="M98.79,17.526c-0.763-0.571-1.751-0.752-2.664-0.482l-28.874,8.439l-31.768-7.385c-0.006-0.001-0.015-0.001-0.021-0.002  c-0.095-0.021-0.192-0.021-0.287-0.033c-0.13-0.016-0.26-0.041-0.387-0.041c-0.089,0-0.175,0.021-0.262,0.029  c-0.138,0.013-0.276,0.018-0.409,0.049c-0.008,0.001-0.015,0.001-0.021,0.002L2.325,25.667C0.963,25.991,0,27.209,0,28.61v51.442  c0,0.926,0.425,1.801,1.15,2.374c0.54,0.427,1.201,0.651,1.875,0.651c0.233,0,0.471-0.027,0.702-0.082l31.08-7.4L66.654,83  c0.228,0.053,0.457,0.078,0.686,0.078c0.284,0,0.57-0.039,0.849-0.121l29.635-8.662c1.29-0.377,2.177-1.561,2.177-2.904V19.948  C100,18.995,99.552,18.099,98.79,17.526z M6.052,31l25.721-6.124v45.221L6.052,76.221V31z M37.825,24.855l26.489,6.159v45.229  l-26.489-6.158V24.855z M93.947,69.122l-23.581,6.894V30.878l23.581-6.893V69.122z"></path></svg>