<svg xmlns="http://www.w3.org/2000/svg" xmlns:xlink="http://www.w3.org/1999/xlink" version="1.1" x="0px" y="0px" viewBox="0 0 100 100" enable-background="new 0 0 100 100" xml:space="preserve"><path display="none" fill="#000000" d="M49.752,89.854c-21.951,0-39.809-17.855-39.809-39.809  s17.858-39.809,39.809-39.809c21.95,0,39.809,17.858,39.809,39.809C89.561,71.995,71.702,89.854,49.752,89.854z M49.752,14.236  c-19.745,0-35.809,16.063-35.809,35.809s16.063,35.809,35.809,35.809S85.561,69.79,85.561,50.045S69.497,14.236,49.752,14.236z"></path><path fill="#000000" d="M49.752,10.236c-8.513,0-16.399,2.699-22.877,7.268l-1.937-1.001l-0.51,0.987l-0.51,0.987  l32.446,16.769l0.724-0.879l0.72-0.876l-26.87-13.887c5.471-3.396,11.914-5.368,18.813-5.368c19.745,0,35.809,16.064,35.809,35.809  S69.498,85.854,49.752,85.854S13.943,69.791,13.943,50.045c0-7.918,2.588-15.239,6.958-21.173l28.557,14.773l0.722-0.878L50.9,41.89  L22.297,27.099c1.132-1.352,2.357-2.623,3.674-3.795l-3.773-1.95C14.653,28.602,9.943,38.78,9.943,50.045  c0,21.953,17.858,39.809,39.809,39.809c21.95,0,39.809-17.858,39.809-39.809C89.561,28.094,71.702,10.236,49.752,10.236z"></path><polygon fill="#000000" points="24.447,41.438 43.271,51.166 43.992,50.29 24.954,40.451 23.934,42.424 42.548,52.045   43.271,51.166 "></polygon><polygon fill="#000000" points="34.795,75.965 42.906,67.854 48.471,72.663 51.018,70.117 46.585,64.741   72.256,43.63 76.38,29.488 62.238,33.612 41.127,59.282 35.751,54.852 33.205,57.396 38.015,62.962 29.903,71.073 31.304,74.564 "></polygon></svg>