<svg xmlns="http://www.w3.org/2000/svg" xmlns:xlink="http://www.w3.org/1999/xlink" version="1.1" x="0px" y="0px" viewBox="0 0 90 112.5" style="enable-background:new 0 0 90 90;" xml:space="preserve"><path d="M39.1,65c-1.3-1.3-3-1.8-4.6-1.5c-1.3-2-3.2-4.3-5.5-6.6c-1.8-1.8-3.7-3.4-5.4-4.6c0,0,0,0,0,0c0.1-1.5-0.4-3-1.6-4.2  c-2-2-5.2-2.1-7.1-0.3c-1.9,1.9-1.8,5,0.3,7.1c1.1,1.1,2.5,1.6,3.9,1.6c0.6,0.8,1.2,1.6,1.9,2.5c-0.8,0.5-1.6,1.2-2.3,1.9  c-2.2,2.2-3.6,4.8-3.8,7c-1.9-0.3-3.9,0.2-5.4,1.7c-2.4,2.4-2.4,6.1-0.1,8.4c2.3,2.3,6,2.2,8.4-0.1c1.5-1.5,2.1-3.7,1.6-5.6  c2.1-0.3,4.6-1.6,6.8-3.8c0.8-0.8,1.5-1.6,2-2.5c0.8,0.6,1.6,1.2,2.4,1.7c-0.2,1.5,0.4,3.1,1.6,4.3c2,2,5.2,2.1,7,0.3  C41.2,70.2,41.1,67.1,39.1,65z M15.1,75.8c-1.4,1.4-3.4,1.8-4.4,0.8c-1-1-0.6-2.9,0.9-4.3c1.4-1.5,3.4-1.8,4.4-0.9  C17,72.4,16.6,74.3,15.1,75.8z"/><path d="M76.4,12.6c0-0.7-0.1-1.2-0.4-1.5c-2.2-2.2-15.4,4.4-17.8,6.8L45.1,33.4L32,17.8c-2.3-2.3-15.6-8.9-17.8-6.8  c-0.3,0.3-0.4,0.8-0.4,1.5c0,4.1,4.9,14,6.9,16L37,42.9l-4.3,5c-2.3,2.3-4,4.5-1.8,6.7l1.6,1.6c2.2,2.2,4.6,0.9,6.9-1.4l5.6-4.9  l5.6,4.9c2.3,2.3,4.7,3.6,6.9,1.4l1.6-1.6c2.2-2.2,0.5-4.4-1.8-6.7l-4.3-5l16.4-14.3C71.5,26.6,76.4,16.8,76.4,12.6z M41,52.2  c-2.1,2.1-4.1,3.2-5.9,1.5l-1.3-1.3c-1.7-1.7-0.2-3.7,1.8-5.7l2.4-2.9l6.3,5.5L41,52.2z M54.5,46.7c2.1,2.1,3.6,4,1.8,5.7L55,53.7  c-1.7,1.7-3.8,0.6-5.9-1.5l-3.4-3l-0.8-0.7L38.7,43l-1-0.9l-15-13.3c-1.8-1.8-6.5-10.6-6.5-14c0-0.5,0.1-0.9,0.3-1.1  c1.7-1.7,13.2,4.4,15.3,6.4l12.3,14.3l0.9,1.1l6.3,7.4l0.7,0.8L54.5,46.7z M52.4,42.1L46,34.5l12.3-14.3c2.1-2.1,13.6-8.2,15.3-6.4  c0.2,0.2,0.3,0.6,0.3,1.1c0,3.4-4.7,12.2-6.5,14L52.4,42.1z"/><path d="M80.5,69.5c-1.5-1.5-3.5-2.1-5.4-1.7c-0.3-2.2-1.6-4.8-3.8-7c-0.8-0.8-1.5-1.4-2.3-1.9c0.7-0.8,1.4-1.7,1.9-2.5  c1.4,0,2.8-0.5,3.9-1.6c2-2,2.1-5.2,0.3-7.1c-1.9-1.9-5-1.8-7.1,0.3c-1.2,1.2-1.7,2.8-1.6,4.2c0,0,0,0,0,0c-1.7,1.2-3.5,2.8-5.4,4.6  c-2.3,2.3-4.2,4.6-5.5,6.6C54,63.3,52.3,63.8,51,65c-2,2-2.1,5.2-0.3,7.1c1.9,1.9,5,1.8,7.1-0.3c1.2-1.2,1.7-2.8,1.6-4.3  c0.7-0.5,1.5-1,2.3-1.7c0.6,0.8,1.3,1.7,2,2.5c2.2,2.2,4.7,3.5,6.8,3.8c-0.4,1.9,0.1,4.1,1.7,5.6c2.4,2.4,6.1,2.4,8.4,0.1  C82.9,75.7,82.8,71.9,80.5,69.5z M79.3,76.6c-1,1-2.9,0.6-4.4-0.8c-1.4-1.5-1.8-3.4-0.9-4.4c1-1,2.9-0.6,4.4,0.9  C79.9,73.7,80.3,75.7,79.3,76.6z"/><text x="0" y="105" fill="#000000" font-size="5px" font-weight="bold" font-family="'Helvetica Neue', Helvetica, Arial-Unicode, Arial, Sans-serif">Created by Henry</text><text x="0" y="110" fill="#000000" font-size="5px" font-weight="bold" font-family="'Helvetica Neue', Helvetica, Arial-Unicode, Arial, Sans-serif">from the Noun Project</text></svg>