<svg xmlns="http://www.w3.org/2000/svg" xmlns:xlink="http://www.w3.org/1999/xlink" version="1.1" x="0px" y="0px" viewBox="0 0 100 125" enable-background="new 0 0 100 100" xml:space="preserve"><path d="M75.467,40.295c-0.203-5.802-0.203-5.802-0.874-6.344l0,0c-0.326-0.264-0.73-0.404-1.142-0.404  c-0.136,0-0.273,0.015-0.408,0.047c-3.07,0.709-5.78,0.994-8.149,0.994c-7.768,0-11.889-3.057-13.178-4.227  c-0.509-0.461-1.148-0.692-1.786-0.692c-0.639,0-1.277,0.231-1.787,0.693c-1.288,1.169-5.41,4.227-13.176,4.227  c-2.37,0-5.078-0.285-8.151-0.995l-0.001,0c-0.135-0.031-0.272-0.046-0.408-0.046c-0.411,0-0.815,0.14-1.142,0.404l0,0  c-0.671,0.543-0.671,0.543-0.874,6.344c-0.001,0.05-0.172,4.961-0.168,5.176c0.257,15.975,7.255,29.859,19.199,38.09  c1.442,0.994,3.002,1.938,4.637,2.805c0.586,0.311,1.228,0.467,1.871,0.467c0.642,0,1.285-0.156,1.871-0.467  c1.634-0.868,3.195-1.811,4.637-2.805c11.944-8.231,18.943-22.115,19.199-38.089C75.639,45.256,75.468,40.344,75.467,40.295z   M70.112,58.255H49.929V83.2c-0.059,0-0.117-0.013-0.168-0.04c-1.512-0.803-2.952-1.673-4.279-2.588  c-7.641-5.265-13.069-13.088-15.743-22.331h20.191V33.602c2.076,1.653,6.924,4.608,15.012,4.608c2.054,0,4.315-0.19,6.795-0.641  c0.106,2.81,0.264,7.547,0.27,7.843C71.933,49.908,71.281,54.216,70.112,58.255z"/><path d="M64.893,30.587c2.25,0,4.689-0.3,7.248-0.891c0.429-0.099,0.869-0.149,1.309-0.149c0.634,0,1.259,0.111,1.854,0.312  l1.386-1.423l6.049,3.433c0.17,0.096,0.383,0.067,0.521-0.071l1.001-1.001c0.169-0.169,0.169-0.444,0-0.614l-5.516-5.516  l7.646-8.523c1.392,0.479,2.993,0.177,4.104-0.934c1.553-1.553,1.553-4.07,0-5.623c-1.553-1.553-4.07-1.553-5.623,0  c-1.137,1.137-1.433,2.789-0.904,4.203l-8.486,7.613l-5.516-5.516c-0.169-0.169-0.444-0.169-0.614,0l-1.001,1.001  c-0.138,0.138-0.167,0.351-0.071,0.521l3.433,6.049l-7.307,7.116C64.571,30.578,64.726,30.587,64.893,30.587z"/><path d="M15.814,77.901c-0.629,0.613-1.13,1.346-1.471,2.155l-6.145,11.52l11.895-5.769c0.809-0.342,1.542-0.842,2.155-1.471  l7.923-8.135c-1.783-2.411-3.34-5.001-4.664-7.74L15.814,77.901z"/><path d="M13.609,16.145l7.646,8.523l-5.516,5.516c-0.169,0.169-0.169,0.444,0,0.614l1.001,1.001  c0.138,0.138,0.351,0.167,0.521,0.071l6.049-3.433l1.357,1.393c0.561-0.177,1.146-0.282,1.74-0.282c0.439,0,0.879,0.05,1.309,0.149  c2.561,0.592,5,0.892,7.25,0.892c0.215,0,0.416-0.009,0.624-0.015l-7.304-7.113l3.433-6.049c0.096-0.17,0.068-0.383-0.071-0.521  l-1.001-1.001c-0.169-0.169-0.444-0.169-0.614,0l-5.516,5.516l-8.486-7.613c0.528-1.414,0.233-3.066-0.904-4.203  c-1.553-1.553-4.07-1.553-5.623,0c-1.553,1.553-1.553,4.07,0,5.623C10.616,16.322,12.217,16.623,13.609,16.145z"/><path d="M85.658,80.056c-0.342-0.809-0.842-1.542-1.471-2.155l-9.792-9.536c-1.318,2.743-2.87,5.336-4.648,7.751l8.005,8.22  c0.613,0.629,1.346,1.13,2.155,1.471l11.895,5.769L85.658,80.056z"/><text x="0" y="115" fill="#000000" font-size="5px" font-weight="bold" font-family="'Helvetica Neue', Helvetica, Arial-Unicode, Arial, Sans-serif">Created by Alina Oleynik</text><text x="0" y="120" fill="#000000" font-size="5px" font-weight="bold" font-family="'Helvetica Neue', Helvetica, Arial-Unicode, Arial, Sans-serif">from the Noun Project</text></svg>