<svg xmlns="http://www.w3.org/2000/svg" xmlns:xlink="http://www.w3.org/1999/xlink" version="1.1" x="0px" y="0px" viewBox="0 0 100 125" enable-background="new 0 0 100 100" xml:space="preserve"><g><path d="M8.942,79.318c-1.567,1.567-2.431,3.651-2.431,5.868c0,2.218,0.863,4.304,2.431,5.871c1.569,1.567,3.653,2.431,5.871,2.431   c2.217,0,4.301-0.863,5.87-2.431c1.106-1.109,1.864-2.479,2.214-3.99l5.595-5.596c0,0,0,0,0.002-0.002l0,0l3.46-3.46l4.339,4.34   c0.333,0.333,0.784,0.52,1.254,0.52c0.473,0,0.924-0.187,1.257-0.52l4.193-4.196c0.694-0.691,0.694-1.816,0-2.51l-3.878-3.881   l37.948-27.422c0.417-0.302,0.684-0.771,0.728-1.284L79.626,22.3c0.046-0.524-0.142-1.04-0.515-1.411   c-0.371-0.373-0.888-0.561-1.412-0.515l-20.756,1.83c-0.515,0.044-0.983,0.312-1.284,0.729l-27.422,37.95l-3.881-3.88   c-0.333-0.333-0.783-0.521-1.256-0.521c-0.471,0-0.922,0.188-1.255,0.521l-4.195,4.193c-0.693,0.694-0.693,1.818,0,2.511   l4.339,4.339l-9.057,9.057C11.421,77.452,10.052,78.21,8.942,79.318z M14.813,89.937c-1.269,0-2.461-0.494-3.358-1.392   s-1.392-2.09-1.392-3.358c0-1.268,0.494-2.461,1.392-3.357c0.716-0.716,1.623-1.177,2.622-1.332l0,0   c0.243-0.038,0.491-0.059,0.736-0.059c1.27,0,2.462,0.495,3.357,1.391c0.134,0.133,0.258,0.274,0.373,0.42   c0.808,1.029,1.163,2.363,0.959,3.674c-0.155,0.999-0.616,1.906-1.332,2.622C17.273,89.442,16.081,89.937,14.813,89.937z    M58.064,25.67l17.837-1.571L74.33,41.938L36.574,69.219l-1.641-1.642l31.962-31.961c0.694-0.693,0.694-1.818,0-2.512   c-0.693-0.694-1.816-0.694-2.51,0L32.423,65.066l-1.642-1.641L58.064,25.67z M23.101,60.77l16.13,16.13l-1.684,1.683l-4.331-4.331   c-0.002-0.004-0.004-0.006-0.006-0.008l-7.453-7.454c0,0-0.002,0-0.002-0.002l-4.335-4.335L23.101,60.77z M29.441,75.5   l-2.203,2.203l-4.941-4.941l2.203-2.203L29.441,75.5z M19.784,75.272l4.941,4.943l-2.122,2.121   c-0.012-0.031-0.023-0.062-0.035-0.094c-0.026-0.065-0.052-0.131-0.08-0.197c-0.032-0.077-0.063-0.157-0.1-0.233   c-0.028-0.065-0.058-0.131-0.088-0.195c-0.038-0.075-0.076-0.153-0.113-0.229c-0.032-0.062-0.066-0.125-0.1-0.188   c-0.042-0.075-0.084-0.149-0.128-0.225c-0.036-0.061-0.07-0.12-0.107-0.18c-0.048-0.076-0.096-0.149-0.146-0.224   c-0.038-0.056-0.074-0.113-0.114-0.169c-0.054-0.076-0.109-0.149-0.165-0.226c-0.038-0.05-0.076-0.102-0.116-0.151   c-0.063-0.082-0.134-0.162-0.201-0.241c-0.034-0.04-0.065-0.082-0.102-0.122c-0.105-0.117-0.214-0.233-0.327-0.345   c-0.104-0.104-0.209-0.205-0.317-0.301c-0.035-0.032-0.073-0.064-0.109-0.096c-0.074-0.064-0.146-0.126-0.22-0.188   c-0.046-0.036-0.092-0.07-0.137-0.106c-0.068-0.054-0.136-0.105-0.206-0.157c-0.05-0.036-0.1-0.069-0.149-0.104   c-0.067-0.048-0.138-0.096-0.205-0.14c-0.052-0.034-0.105-0.068-0.158-0.1c-0.069-0.044-0.139-0.086-0.209-0.126   c-0.054-0.031-0.107-0.062-0.163-0.094c-0.07-0.038-0.142-0.075-0.214-0.111c-0.056-0.028-0.109-0.058-0.165-0.084   c-0.076-0.036-0.152-0.071-0.228-0.105c-0.054-0.024-0.107-0.048-0.162-0.072c-0.081-0.033-0.163-0.065-0.247-0.098   c-0.042-0.016-0.081-0.033-0.123-0.048L19.784,75.272z"/><path d="M36.213,39.17V17.578c0-0.98-0.795-1.776-1.774-1.776c-0.981,0-1.776,0.796-1.776,1.776V39.17   c0,0.981,0.795,1.774,1.776,1.774C35.418,40.944,36.213,40.151,36.213,39.17z"/><path d="M56.832,15.222V8.288c0-0.981-0.796-1.776-1.777-1.776c-0.98,0-1.774,0.795-1.774,1.776v6.934   c0,0.98,0.794,1.776,1.774,1.776C56.036,16.998,56.832,16.202,56.832,15.222z"/><path d="M59.055,65.563c0,0.979,0.796,1.774,1.775,1.774h21.592c0.98,0,1.776-0.796,1.776-1.774c0-0.981-0.796-1.777-1.776-1.777   H60.83C59.851,63.786,59.055,64.582,59.055,65.563z"/><path d="M91.714,43.168h-6.936c-0.98,0-1.776,0.796-1.776,1.776c0,0.981,0.796,1.777,1.776,1.777h6.936   c0.979,0,1.774-0.796,1.774-1.777C93.488,43.964,92.692,43.168,91.714,43.168z"/><path d="M84.746,17.764l2.306-2.303c0.694-0.694,0.694-1.818,0-2.513s-1.816-0.694-2.511,0l-2.305,2.305   c-0.694,0.694-0.694,1.819,0,2.511c0.347,0.347,0.802,0.521,1.256,0.521C83.945,18.284,84.399,18.11,84.746,17.764z"/></g><text x="0" y="115" fill="#000000" font-size="5px" font-weight="bold" font-family="'Helvetica Neue', Helvetica, Arial-Unicode, Arial, Sans-serif">Created by Ruslan Dezign </text><text x="0" y="120" fill="#000000" font-size="5px" font-weight="bold" font-family="'Helvetica Neue', Helvetica, Arial-Unicode, Arial, Sans-serif">from the Noun Project</text></svg>